<?xml version="1.0" encoding="utf-8"?>
<svg version="1.1" id="Layer_1" xmlns="http://www.w3.org/2000/svg" xmlns:xlink="http://www.w3.org/1999/xlink" x="0px" y="0px"
	 viewBox="0 0 1024 1024" style="enable-background:new 0 0 1024 1024;" xml:space="preserve">
<style type="text/css">
	.st0{fill:#FFFFFF;}
	.st1{fill:none;stroke:#000000;stroke-width:51;stroke-linecap:round;stroke-miterlimit:10;}
	.st2{fill:none;stroke:#000000;stroke-width:51;stroke-miterlimit:10;}
</style>
<circle class="st0" cx="512" cy="512" r="512"/>
<g>
	<g>
		<path class="st1" d="M140.1,518.9c0-2.3-0.1-4.6-0.1-6.9c0-205.4,166.6-372,372-372s372,166.6,372,372S717.4,884,512,884
			c-52.8,0-103.1-11-148.6-30.9"/>
		<g>
			<polygon points="239.4,469.7 171.7,662.6 38.5,507.6 			"/>
		</g>
	</g>
</g>
<g>
	<path d="M512,321.9c21,0,38,17,38,38s-17,38-38,38c-21,0-38-17-38-38S491,321.9,512,321.9 M512,270.9c-49.1,0-89,39.9-89,89
		s39.9,89,89,89s89-39.9,89-89S561.1,270.9,512,270.9L512,270.9z"/>
</g>
<g>
	<path d="M689.4,499.3c21,0,38,17,38,38s-17,38-38,38s-38-17-38-38S668.4,499.3,689.4,499.3 M689.4,448.3c-49.1,0-89,39.9-89,89
		c0,49.1,39.9,89,89,89s89-39.9,89-89C778.4,488.2,738.5,448.3,689.4,448.3L689.4,448.3z"/>
</g>
<g>
	<path d="M512,613.4c21,0,38,17,38,38s-17,38-38,38c-21,0-38-17-38-38S491,613.4,512,613.4 M512,562.4c-49.1,0-89,39.9-89,89
		s39.9,89,89,89s89-39.9,89-89S561.1,562.4,512,562.4L512,562.4z"/>
</g>
<line class="st2" x1="512" y1="397.9" x2="512" y2="614.7"/>
<line class="st2" x1="538.6" y1="386.5" x2="662.8" y2="510.7"/>
<line class="st1" x1="512" y1="290.2" x2="512" y2="140.5"/>
</svg>
